<svg width="24" height="24" viewBox="0 0 24 24" fill="none" xmlns="http://www.w3.org/2000/svg">
<path d="M14.5978 15.7692H14.0337C13.5666 15.7692 13.1875 15.3902 13.1875 14.9231V9.84615C13.1875 9.37908 13.5666 9 14.0337 9H14.5978C16.5721 9 17.7003 10.328 17.7003 12.3846C17.7003 14.4412 16.5721 15.7692 14.5978 15.7692ZM14.3157 10.1282V14.641C15.2487 14.641 16.5721 14.0769 16.5721 12.3846C16.5721 10.6923 15.2487 10.1282 14.3157 10.1282Z" fill="white"/>
<path d="M10.6479 15.7692C10.1809 15.7692 10.0838 15.3902 10.0838 14.9231V11.2564C10.0838 10.9462 9.86576 10.1282 8.95563 10.1282C8.04549 10.1282 7.826 10.9462 7.826 11.2564V14.9231C7.826 15.3902 7.7304 15.7692 7.26332 15.7692C6.79625 15.7692 6.69922 15.3902 6.69922 14.9231V11.2564C6.69922 10.012 7.71122 9 8.95563 9C10.2 9 11.212 10.012 11.212 11.2564V14.9231C11.212 15.3902 11.115 15.7692 10.6479 15.7692Z" fill="white"/>
<path d="M10.3659 13.513H7.54537C7.0783 13.513 6.69922 13.2603 6.69922 12.9489C6.69922 12.6375 7.0783 12.3848 7.54537 12.3848H10.3659C10.833 12.3848 11.212 12.6375 11.212 12.9489C11.212 13.2603 10.833 13.513 10.3659 13.513Z" fill="white"/>
<path fill-rule="evenodd" clip-rule="evenodd" d="M16.6857 2H7.31429C4.04762 2 2 4.31208 2 7.58516V16.4148C2 19.6879 4.0381 22 7.31429 22H16.6857C19.9619 22 22 19.6879 22 16.4148V7.58516C22 4.31208 19.9619 2 16.6857 2Z" stroke="white" stroke-width="1.5" stroke-linecap="round" stroke-linejoin="round"/>
</svg>
