<svg width="24" height="24" viewBox="0 0 24 24" fill="none" xmlns="http://www.w3.org/2000/svg">
<g opacity="0.7">
<path d="M14.5939 15.6149H14.0297C13.5627 15.6149 13.1836 15.2359 13.1836 14.7688V9.69186C13.1836 9.22478 13.5627 8.8457 14.0297 8.8457H14.5939C16.5682 8.8457 17.6964 10.1737 17.6964 12.2303C17.6964 14.2869 16.5682 15.6149 14.5939 15.6149ZM14.3118 9.97391V14.4867C15.2448 14.4867 16.5682 13.9226 16.5682 12.2303C16.5682 10.538 15.2448 9.97391 14.3118 9.97391Z" fill="#727384"/>
<path d="M10.6479 15.6149C10.1809 15.6149 10.0838 15.2359 10.0838 14.7688V11.1021C10.0838 10.7919 9.86576 9.97391 8.95562 9.97391C8.04549 9.97391 7.826 10.7919 7.826 11.1021V14.7688C7.826 15.2359 7.7304 15.6149 7.26332 15.6149C6.79625 15.6149 6.69922 15.2359 6.69922 14.7688V11.1021C6.69922 9.8577 7.71122 8.8457 8.95562 8.8457C10.2 8.8457 11.212 9.8577 11.212 11.1021V14.7688C11.212 15.2359 11.115 15.6149 10.6479 15.6149Z" fill="#727384"/>
<path d="M10.3659 13.3592H7.54537C7.0783 13.3592 6.69922 13.1064 6.69922 12.7951C6.69922 12.4837 7.0783 12.231 7.54537 12.231H10.3659C10.833 12.231 11.212 12.4837 11.212 12.7951C11.212 13.1064 10.833 13.3592 10.3659 13.3592Z" fill="#727384"/>
<path fill-rule="evenodd" clip-rule="evenodd" d="M16.6857 2H7.31429C4.04762 2 2 4.31208 2 7.58516V16.4148C2 19.6879 4.0381 22 7.31429 22H16.6857C19.9619 22 22 19.6879 22 16.4148V7.58516C22 4.31208 19.9619 2 16.6857 2Z" stroke="#727384" stroke-width="1.5" stroke-linecap="round" stroke-linejoin="round"/>
</g>
</svg>
