<?xml version="1.0" ?><svg width="56px" height="56px" viewBox="0 0 56 56" id="Layer_1" style="enable-background:new 0 0 56 56;" version="1.1" xml:space="preserve" xmlns="http://www.w3.org/2000/svg" xmlns:xlink="http://www.w3.org/1999/xlink"><g><path d="M52.9,22.6c-0.3-2.1-1.4-4.2-3-5.9c-0.5-0.5-1.2-1.1-1.8-1.6l0.5-3.5c0.2-1.5-0.3-2.9-1.3-4c-1-1.1-2.5-1.7-3.9-1.6   L30.7,6.7c-2,0.1-3.9,0.9-5.3,2.3L3.8,29.1c-1,1-1.1,2.7,0,3.7L19,49.2c0.5,0.5,1.1,0.8,1.8,0.9c0.1,0,0.1,0,0.2,0   c0.6,0,1.3-0.2,1.7-0.7l21.6-20.1c0.2-0.1,0.3-0.3,0.4-0.5c1,0.4,1.9,0.5,2.8,0.5c1.5,0,2.8-0.5,3.8-1.4   C52.7,26.7,53.2,24.8,52.9,22.6z M21.4,47.9c-0.1,0.1-0.3,0.1-0.4,0.1c-0.2,0-0.4-0.1-0.5-0.3L5.2,31.5c-0.3-0.3-0.3-0.7-0.1-0.9   l21.6-20.1c1.1-1,2.6-1.6,4.1-1.7l12.6-0.8c0.1,0,0.1,0,0.2,0c0.8,0,1.6,0.4,2.2,1c0.6,0.7,0.9,1.6,0.8,2.4l-1.7,12.5   c-0.1,0.9-0.4,1.7-0.9,2.5c-0.9-0.5-1.7-1.1-2.5-1.9c-0.7-0.8-1.3-1.6-1.7-2.5c0.4-0.2,0.8-0.5,1.2-0.8c2.1-1.9,2.4-5,0.8-7.3   c0-0.1-0.1-0.1-0.1-0.2c-0.1-0.2-0.3-0.4-0.4-0.5c-1-1.1-2.5-1.8-4-1.8c-1.5-0.1-3,0.5-4.1,1.5c-1.1,1-1.8,2.5-1.8,4   c-0.1,1.5,0.5,3,1.5,4.1c1,1.1,2.5,1.8,4,1.8c0.1,0,0.1,0,0.2,0c0.3,0,0.5,0,0.8-0.1c0.5,1.1,1.3,2.2,2.2,3.2   c0.8,0.9,1.7,1.6,2.7,2.2L21.4,47.9z M37.3,20.6c-0.1,0-0.1,0-0.2,0c-1,0-1.9-0.5-2.6-1.2s-1-1.7-1-2.7c0-1,0.5-1.9,1.2-2.6   c0.7-0.7,1.6-1,2.5-1c0.8,0,1.5,0.2,2.2,0.7c-0.2,0.2-0.5,0.3-0.7,0.5C37.2,15.9,36.7,18.1,37.3,20.6z M40.1,15.9   c0.2-0.2,0.4-0.3,0.6-0.4c0.6,1.4,0.3,3-0.9,4.1c-0.2,0.2-0.3,0.3-0.5,0.4C38.8,18.3,39.1,16.8,40.1,15.9z M50,26.5   c-0.9,0.9-2.4,1.1-4,0.6c0.5-0.9,0.8-1.9,1-3l0.9-6.6c0.2,0.2,0.4,0.4,0.6,0.6c1.4,1.5,2.3,3.2,2.5,4.9   C51.2,24.4,50.8,25.7,50,26.5z"/><path d="M31,21.7c-0.1,0-0.5,0-0.9,0c-2.2-0.1-6.7-0.3-9.5,0.9c-3.5,1.5-3.1,6.5-2.6,9.3c-1.2,1.2-2.2,2.5-2.7,4.1   c-0.6,2-0.2,3.9,1.1,5.9c0.2,0.3,0.5,0.4,0.8,0.4c0.2,0,0.4-0.1,0.6-0.2c0.5-0.3,0.6-0.9,0.3-1.4c-1-1.4-1.3-2.8-0.9-4.1   c0.3-0.9,0.8-1.7,1.4-2.4c0.1,0.2,0.3,0.3,0.5,0.4c0.2,0.1,2.9,1,5.8,1c2.1,0,4.2-0.5,5.5-2.2c2.7-3.6,1.7-10.6,1.6-10.9   C32,22,31.6,21.6,31,21.7z M20.3,32.8c0-0.1,0-0.1,0-0.2c2.3-1.9,5.1-3.1,5.1-3.1c0.5-0.2,0.8-0.8,0.5-1.3   c-0.2-0.5-0.8-0.8-1.3-0.5c-0.2,0.1-2.5,1.1-4.8,2.7c-0.3-2.4-0.2-5.2,1.6-6c2.3-1,6.7-0.8,8.6-0.8c0.1,0,0.1,0,0.2,0   c0.2,2.2,0.3,6.4-1.3,8.5C27.2,34.4,22.5,33.5,20.3,32.8z"/></g></svg>