<?xml version="1.0" ?><svg id="Layer_1" style="enable-background:new 0 0 64 64;" version="1.1" viewBox="0 0 64 64" xml:space="preserve" xmlns="http://www.w3.org/2000/svg" xmlns:xlink="http://www.w3.org/1999/xlink"><style type="text/css">
	.st0{fill:#62BEE7;}
	.st1{fill:#474E5E;}
	.st2{fill:#F3EEE4;}
	.st3{fill:#FFFFFF;}
	.st4{fill:#E8DCCA;}
	.st5{opacity:0.1;fill:#231F20;}
	.st6{fill:#506268;}
	.st7{fill:#EB5151;}
	.st8{fill:#C64444;}
	.st9{fill:#9CCB5B;}
	.st10{fill:#404A4C;}
	.st11{fill:#676767;}
	.st12{fill:#E0E1E5;}
	.st13{fill:#9D9EA0;}
	.st14{fill:#B3B4B7;}
	.st15{opacity:0.1;}
	.st16{fill:#231F20;}
	.st17{fill:#FACC20;}
	.st18{fill:#FDEF34;}
	.st19{fill:#F7A90B;}
	.st20{fill:#20B8EA;}
	.st21{fill:#00A8EA;}
	.st22{fill:#33D3F4;}
	.st23{opacity:0.25;fill:#FFFFFF;}
	.st24{fill:#CACBCE;}
	.st25{fill:#2E3545;}
	.st26{fill:#8DAF4A;}
	.st27{fill:#F9C2AF;}
	.st28{fill:#AFDDF4;}
	.st29{fill:#677177;}
	.st30{fill:#FFEDB3;}
	.st31{fill:#695652;}
	.st32{fill:#30A7BF;}
	.st33{fill:#4D5556;}
	.st34{opacity:0.35;}
	.st35{fill:#FFCB04;}
	.st36{fill:#99E9FA;}
	.st37{opacity:0.2;}
	.st38{opacity:3.000000e-02;}
	.st39{fill:#9ECA5B;}
	.st40{fill:#98BA56;}
	.st41{fill:#40EEFF;}
	.st42{fill:#FF6A52;}
	.st43{opacity:0.1;fill:#FFFFFF;}
	.st44{opacity:0.4;}
	.st45{fill:#57606D;}
	.st46{fill:#BACA5B;}
	.st47{opacity:0.25;}
	.st48{opacity:5.000000e-02;fill:#231F20;}
	.st49{opacity:0.2;fill:#FFFFFF;}
	.st50{opacity:0.3;}
	.st51{fill:#FFD82F;}
	.st52{fill:#F4C121;}
	.st53{fill:#EF9D0A;}
	.st54{fill:#F9E532;}
	.st55{fill:#F4C01E;}
	.st56{fill:#FFE14D;}
	.st57{fill:#B7C156;}
	.st58{fill:#DBA92C;}
	.st59{fill:#363D4D;}
	.st60{fill:#3F4656;}
	.st61{fill:#463E33;}
	.st62{fill:none;}
	.st63{opacity:4.000000e-02;}
	.st64{fill:#4DB6AC;}
	.st65{fill:#CADE49;}
	.st66{fill:#9FD343;}
	.st67{fill:#AAD643;}
	.st68{fill:#82C736;}
	.st69{opacity:0.3;fill:#FFFFFF;}
	.st70{fill:#FFD640;}
	.st71{opacity:0.5;}
	.st72{opacity:0.6;}
</style><g><circle class="st1" cx="32" cy="32" r="32"/><g><g><g><path class="st14" d="M52.9,35.3H11.1c-1.7,0-3.1-1.4-3.1-3.1V16.7c0-1.7,1.4-3.1,3.1-3.1h41.8c1.7,0,3.1,1.4,3.1,3.1v15.5      C56,33.9,54.6,35.3,52.9,35.3z"/></g></g><path class="st12" d="M52.9,30.7H11.1c-0.4,0-0.8-0.3-0.8-0.8V19.1c0-0.4,0.3-0.8,0.8-0.8h41.8c0.4,0,0.8,0.3,0.8,0.8v10.8    C53.7,30.3,53.3,30.7,52.9,30.7z"/><path class="st25" d="M10.3,25.3v4.6c0,0.4,0.3,0.8,0.8,0.8h41.8c0.4,0,0.8-0.3,0.8-0.8v-4.6H10.3z"/><g><path class="st40" d="M51.4,52.3V40.2c0-5.6-2.2-11-6.2-15l0,0H15.7l0,0c4,4,6.2,9.3,6.2,15v12.2H51.4z"/></g><g><path class="st46" d="M47.5,40.2v4.1c-2.3,0-4.1,1.9-4.1,4.1H29.9c0-2.3-1.9-4.1-4.1-4.1v-4.1c0-5.6-1.4-11-5.4-15h20.1     C44.5,29.2,47.5,34.6,47.5,40.2z"/></g><g><path class="st40" d="M25.4,25.2c0.8,3.4,4.2,6.2,7.5,6.2c3.3,0,5.3-2.8,4.5-6.2H25.4z"/></g><g class="st15"><path class="st16" d="M46.4,26.6c-0.4-0.5-0.8-0.9-1.2-1.3H15.7c0.4,0.4,0.8,0.9,1.2,1.3H46.4z"/></g><g class="st47"><polygon class="st3" points="24.6,13.6 8,30.2 8,26.6 20.9,13.6    "/><path class="st3" d="M32,13.6L10.3,35.3h-0.2c-1.1,0-2.1-0.9-2.1-2.1v-1l18.6-18.6H32z"/></g></g></g></svg>