<?xml version="1.0" ?><svg id="Layer_1" style="enable-background:new 0 0 64 64;" version="1.1" viewBox="0 0 64 64" xml:space="preserve" xmlns="http://www.w3.org/2000/svg" xmlns:xlink="http://www.w3.org/1999/xlink"><style type="text/css">
	.st0{fill:#62BEE7;}
	.st1{fill:#474E5E;}
	.st2{fill:#F3EEE4;}
	.st3{fill:#FFFFFF;}
	.st4{fill:#E8DCCA;}
	.st5{opacity:0.1;fill:#231F20;}
	.st6{fill:#506268;}
	.st7{fill:#EB5151;}
	.st8{fill:#C64444;}
	.st9{fill:#9CCB5B;}
	.st10{fill:#404A4C;}
	.st11{fill:#676767;}
	.st12{fill:#E0E1E5;}
	.st13{fill:#9D9EA0;}
	.st14{fill:#B3B4B7;}
	.st15{opacity:0.1;}
	.st16{fill:#231F20;}
	.st17{fill:#FACC20;}
	.st18{fill:#FDEF34;}
	.st19{fill:#F7A90B;}
	.st20{fill:#20B8EA;}
	.st21{fill:#00A8EA;}
	.st22{fill:#33D3F4;}
	.st23{opacity:0.25;fill:#FFFFFF;}
	.st24{fill:#CACBCE;}
	.st25{fill:#2E3545;}
	.st26{fill:#8DAF4A;}
	.st27{fill:#F9C2AF;}
	.st28{fill:#AFDDF4;}
	.st29{fill:#677177;}
	.st30{fill:#FFEDB3;}
	.st31{fill:#695652;}
	.st32{fill:#30A7BF;}
	.st33{fill:#4D5556;}
	.st34{opacity:0.35;}
	.st35{fill:#FFCB04;}
	.st36{fill:#99E9FA;}
	.st37{opacity:0.2;}
	.st38{opacity:3.000000e-02;}
	.st39{fill:#9ECA5B;}
	.st40{fill:#98BA56;}
	.st41{fill:#40EEFF;}
	.st42{fill:#FF6A52;}
	.st43{opacity:0.1;fill:#FFFFFF;}
	.st44{opacity:0.4;}
	.st45{fill:#57606D;}
	.st46{fill:#BACA5B;}
	.st47{opacity:0.25;}
	.st48{opacity:5.000000e-02;fill:#231F20;}
	.st49{opacity:0.2;fill:#FFFFFF;}
	.st50{opacity:0.3;}
	.st51{fill:#FFD82F;}
	.st52{fill:#F4C121;}
	.st53{fill:#EF9D0A;}
	.st54{fill:#F9E532;}
	.st55{fill:#F4C01E;}
	.st56{fill:#FFE14D;}
	.st57{fill:#B7C156;}
	.st58{fill:#DBA92C;}
	.st59{fill:#363D4D;}
	.st60{fill:#3F4656;}
	.st61{fill:#463E33;}
	.st62{fill:none;}
	.st63{opacity:4.000000e-02;}
	.st64{fill:#4DB6AC;}
	.st65{fill:#CADE49;}
	.st66{fill:#9FD343;}
	.st67{fill:#AAD643;}
	.st68{fill:#82C736;}
	.st69{opacity:0.3;fill:#FFFFFF;}
	.st70{fill:#FFD640;}
	.st71{opacity:0.5;}
	.st72{opacity:0.6;}
</style><g><circle class="st1" cx="32" cy="32" r="32"/><g><g><path class="st22" d="M21.3,44.8c0.6,0,1.2,0,1.8,0v8.1h-5.9v-8.2C18.6,44.7,20,44.8,21.3,44.8z"/></g><g><path class="st21" d="M17.2,44.6v8.2h-5.9v-9.2C13.2,44.1,15.2,44.4,17.2,44.6z"/></g><g><path class="st21" d="M29.1,44v8.9h-5.9v-8.1C25.2,44.7,27.2,44.4,29.1,44z"/></g><g><path class="st22" d="M35,42v10.8h-5.9V44C31.2,43.5,33.2,42.8,35,42z"/></g><g><path class="st21" d="M40.9,38.5v14.3H35V42C37.2,41,39.1,39.8,40.9,38.5z"/></g><g><path class="st22" d="M46.9,32.7v20.2h-5.9V38.5C43.2,36.8,45.2,34.8,46.9,32.7z"/></g><g><path class="st21" d="M52.8,21.9L52.8,21.9l0,31h-5.9V32.7C49.7,29.1,51.6,25.3,52.8,21.9z"/></g><g><path class="st3" d="M54.3,17.9h-4.5c-0.2,0.7-6.9,29.5-39.2,21.6c-0.5-0.1-0.4-0.8,0.1-0.8c8,0.4,23.3-1.5,27.2-20.8h-6     L43.2,6.7L54.3,17.9z"/></g><g><circle class="st17" cx="20.2" cy="22.3" r="10.5"/></g><g><circle class="st18" cx="20.2" cy="22.3" r="7.9"/></g><g><path class="st7" d="M23.5,23.3c-0.1-0.4-0.6-1.4-2.9-1.9v-2.8c0.6,0.2,0.9,0.6,1.1,1.1c0.1,0.5,0.4,0.7,0.9,0.7     c0.2,0,1.7-0.4,0.2-2.2c-0.2-0.3-0.7-0.8-2.1-1v-1.1h-0.9v1.1c-2.6,0.3-2.9,2-2.9,2.8c0,2.3,2.3,2.7,2.9,2.9V26     c-1.1-0.3-1.3-1.4-1.4-1.8c-0.2-0.5-0.6-0.5-0.8-0.5c-0.7,0-0.9,0.6-0.9,0.8c0,0.3,0.1,1.6,1.8,2.5c0.4,0.2,0.8,0.3,1.4,0.4     l0,1.1h0.9v-1.1c0.6-0.1,1.2-0.2,1.7-0.5C23.6,26.2,24,24.7,23.5,23.3z M19.8,21.2c-0.7-0.3-1.2-0.4-1.2-1.3c0-0.4,0.1-1,1.2-1.3     V21.2z M20.6,26.1v-3c1.4,0.5,1.4,1.1,1.4,1.4C22.1,25,22,25.8,20.6,26.1z"/></g><g><path class="st2" d="M43.2,6.7c3.7,37.9-32.5,32.4-32.8,32.3c0,0.2,0.1,0.3,0.3,0.4c32.3,7.9,39-20.9,39.2-21.6h4.5L43.2,6.7z"/></g><g class="st34"><path class="st3" d="M26.6,14L11.9,28.7c-0.3-0.4-0.5-0.7-0.8-1.1l14.3-14.3C25.8,13.5,26.2,13.8,26.6,14z"/><path class="st3" d="M29.2,17.1L14.9,31.4c-0.8-0.4-1.5-1-2.1-1.6L27.6,15C28.3,15.6,28.8,16.3,29.2,17.1z"/></g></g></g></svg>